<?xml version="1.0" encoding="UTF-8" standalone="no"?>
<svg width="261px" height="196px" viewBox="0 0 261 196" version="1.1" xmlns="http://www.w3.org/2000/svg" xmlns:xlink="http://www.w3.org/1999/xlink">
    <!-- Generator: Sketch 3.8.1 (29687) - http://www.bohemiancoding.com/sketch -->
    <title>leaf</title>
    <desc>Created with Sketch.</desc>
    <defs></defs>
    <g id="Page-1" stroke="none" stroke-width="1" fill="none" fill-rule="evenodd">
        <g id="leaf" transform="translate(-2.000000, 0.000000)">
            <path d="M52.6829268,133.170732 C52.6829268,133.170732 37.5609756,141.95122 10.2439024,182.439024 C5.85365854,188.780488 2.92682927,188.292683 2.92682927,188.292683 C2.92682927,188.292683 4.3902439,198.04878 18.5365854,195.121951 C18.5365854,195.121951 38.5365854,147.804878 59.5121951,138.04878 L52.6829268,133.170732 L52.6829268,133.170732 Z" id="Shape" fill="#648C0F"></path>
            <path d="M33.1707317,157.560976 C33.1707317,157.560976 42.4390244,27.804878 147.804878,31.2195122 C234.634146,33.6585366 262.926829,0 262.926829,0 C262.926829,0 263.902439,184.390244 33.1707317,157.560976 L33.1707317,157.560976 Z" id="Shape" fill="#86C620"></path>
            <path d="M45.8536585,144.878049 C45.8536585,144.878049 89.2682927,79.0243902 140.97561,74.1463415 C193.170732,68.7804878 225.365854,42.9268293 225.365854,42.9268293 C225.365854,42.9268293 193.658537,81.9512195 138.04878,87.3170732 C89.2682927,92.195122 45.8536585,144.878049 45.8536585,144.878049 L45.8536585,144.878049 Z" id="Shape" fill="#648C0F"></path>
        </g>
    </g>
</svg>